<?xml version="1.0" encoding="UTF-8"?>
<svg width="24px" height="24px" viewBox="0 0 24 24" version="1.1" xmlns="http://www.w3.org/2000/svg" xmlns:xlink="http://www.w3.org/1999/xlink">
    <!-- Generator: sketchtool 62 (101010) - https://sketch.com -->
    <title>9E1AA766-CD8F-4DC8-BCE1-6D963C663755</title>
    <desc>Created with sketchtool.</desc>
    <defs>
        <path d="M16,14 L8,14 C5.791,14 4,15.791 4,18 L4,22 L20,22 L20,18 C20,15.791 18.209,14 16,14 M16,16 C17.103,16 18,16.897 18,18 L18,20 L6,20 L6,18 C6,16.897 6.897,16 8,16 L16,16 Z M12,2 C14.762,2 17,4.239 17,7 C17,9.761 14.762,12 12,12 C9.239,12 7,9.761 7,7 C7,4.239 9.239,2 12,2 Z M12,4 C10.346,4 9,5.346 9,7 C9,8.654 10.346,10 12,10 C13.654,10 15,8.654 15,7 C15,5.346 13.654,4 12,4 Z" id="path-1"></path>
    </defs>
    <g id="Marvel-Match-Style-Guide" stroke="none" stroke-width="1" fill="none" fill-rule="evenodd">
        <g id="Light-Mode-Icons" transform="translate(-761.000000, -300.000000)">
            <g id="Group-5" transform="translate(761.000000, 300.000000)">
                <g id="Icon/User/g-icon-user">
                    <mask id="mask-2" fill="white">
                        <use xlink:href="#path-1"></use>
                    </mask>
                    <use id="Fill-3" fill="#627279" fill-rule="evenodd" xlink:href="#path-1"></use>
                </g>
            </g>
        </g>
    </g>
</svg>